<svg width="25" height="24" viewBox="0 0 25 24" fill="none" xmlns="http://www.w3.org/2000/svg">
<path fill-rule="evenodd" clip-rule="evenodd" d="M12.1196 4C9.8876 4 8.07977 5.79 8.07977 8C8.07977 10.21 9.8876 12 12.1196 12C14.3516 12 16.1595 10.21 16.1595 8C16.1595 5.79 14.3516 4 12.1196 4ZM14.1395 8C14.1395 6.9 13.2306 6 12.1196 6C11.0087 6 10.0997 6.9 10.0997 8C10.0997 9.1 11.0087 10 12.1196 10C13.2306 10 14.1395 9.1 14.1395 8ZM18.1794 17C17.9774 16.29 14.8465 15 12.1196 15C9.39272 15 6.26183 16.29 6.05984 17.01V18H18.1794V17ZM4.03991 17C4.03991 14.34 9.42302 13 12.1196 13C14.8162 13 20.1993 14.34 20.1993 17V20H4.03991V17Z" fill="black"/>
</svg>
