<svg width="84" height="84" viewBox="0 0 84 84" fill="none" xmlns="http://www.w3.org/2000/svg">
<path fill-rule="evenodd" clip-rule="evenodd" d="M42 0C18.816 0 0 18.816 0 42C0 65.184 18.816 84 42 84C65.184 84 84 65.184 84 42C84 18.816 65.184 0 42 0ZM68.712 62.286C62.706 54.978 48.132 52.5 42 52.5C35.868 52.5 21.294 54.978 15.288 62.286C11.004 56.658 8.4 49.644 8.4 42C8.4 23.478 23.478 8.4 42 8.4C60.522 8.4 75.6 23.478 75.6 42C75.6 49.644 72.996 56.658 68.712 62.286ZM27.3 31.5C27.3 23.352 33.852 16.8 42 16.8C50.148 16.8 56.7 23.352 56.7 31.5C56.7 39.648 50.148 46.2 42 46.2C33.852 46.2 27.3 39.648 27.3 31.5Z" fill="black"/>
</svg>
