<svg width="24" height="24" viewBox="0 0 24 24" fill="none" xmlns="http://www.w3.org/2000/svg">
<path fill-rule="evenodd" clip-rule="evenodd" d="M15.31 21.03C15.21 21.71 14.59 22.25 13.85 22.25H10.15C9.41 22.25 8.79 21.71 8.7 20.98L8.43 19.09C8.16 18.95 7.9 18.8 7.64 18.63L5.84 19.35C5.14 19.61 4.37 19.32 4.03 18.7L2.2 15.53C1.85 14.87 2 14.09 2.56 13.65L4.09 12.46C4.08 12.31 4.07 12.16 4.07 12C4.07 11.85 4.08 11.69 4.09 11.54L2.57 10.35C1.98 9.9 1.83 9.09 2.2 8.47L4.05 5.28001C4.39 4.66001 5.16 4.38001 5.84 4.65001L7.65 5.38001C7.91 5.21001 8.17 5.06001 8.43 4.92001L8.7 3.01001C8.79 2.31001 9.41 1.76001 10.14 1.76001H13.84C14.58 1.76001 15.2 2.30001 15.29 3.03001L15.56 4.92001C15.83 5.06001 16.09 5.21001 16.35 5.38001L18.15 4.66001C18.86 4.40001 19.63 4.69001 19.97 5.31001L21.81 8.49C22.17 9.15 22.01 9.93 21.45 10.37L19.93 11.56C19.94 11.71 19.95 11.86 19.95 12.02C19.95 12.18 19.94 12.33 19.93 12.48L21.45 13.67C22.01 14.12 22.17 14.9 21.82 15.53L19.96 18.75C19.62 19.37 18.85 19.65 18.16 19.38L16.36 18.66C16.1 18.83 15.84 18.98 15.58 19.12L15.31 21.03ZM10.62 20.25H13.38L13.75 17.7L14.28 17.48C14.72 17.3 15.16 17.04 15.62 16.7L16.07 16.36L18.45 17.32L19.83 14.92L17.8 13.34L17.87 12.78L17.8731 12.7531C17.902 12.5027 17.93 12.2607 17.93 12C17.93 11.73 17.9 11.47 17.87 11.22L17.8 10.66L19.83 9.08L18.44 6.68001L16.05 7.64001L15.6 7.29C15.18 6.97001 14.73 6.71001 14.27 6.52001L13.75 6.30001L13.38 3.75001H10.62L10.25 6.30001L9.72 6.51001C9.28 6.70001 8.84 6.95001 8.38 7.30001L7.93 7.63L5.55 6.68001L4.16 9.07L6.19 10.65L6.12 11.21C6.09 11.47 6.06 11.74 6.06 12C6.06 12.26 6.08 12.53 6.12 12.78L6.19 13.34L4.16 14.92L5.54 17.32L7.93 16.36L8.38 16.71C8.81 17.04 9.24 17.29 9.71 17.48L10.24 17.7L10.62 20.25ZM15.5 12C15.5 13.933 13.933 15.5 12 15.5C10.067 15.5 8.5 13.933 8.5 12C8.5 10.067 10.067 8.5 12 8.5C13.933 8.5 15.5 10.067 15.5 12Z" fill="#E8DEF8"/>
</svg>
